HIERARCHY
ROOT Hips
{
	OFFSET -3.958830 18.904000 13.208200
	CHANNELS 6 Xposition Yposition Zposition Zrotation Yrotation Xrotation 
	JOINT LHipJoint
	{
		OFFSET 0.000000 0.000000 0.000000
		CHANNELS 3 Zrotation Yrotation Xrotation
		JOINT LeftUpLeg
		{
			OFFSET 1.800000 -1.400000 0.085000
			CHANNELS 3 Zrotation Yrotation Xrotation
			JOINT LeftLeg
			{
				OFFSET 2.215000 -6.000000 0.000000
				CHANNELS 3 Zrotation Yrotation Xrotation
				JOINT LeftFoot
				{
					OFFSET 2.500000 -6.900000 0.000000
					CHANNELS 3 Zrotation Yrotation Xrotation
					JOINT LeftToeBase
					{
						OFFSET 0.200000 -0.500000 1.950000
						CHANNELS 3 Zrotation Yrotation Xrotation
						End Site
						{
							OFFSET 0.000000 0.000000 0.000000
						}
					}
				}
			}
		}
	}
	JOINT RHipJoint
	{
		OFFSET 0.000000 0.000000 0.000000
		CHANNELS 3 Zrotation Yrotation Xrotation
		JOINT RightUpLeg
		{
			OFFSET -1.800000 -1.400000 0.085000
			CHANNELS 3 Zrotation Yrotation Xrotation
			JOINT RightLeg
			{
				OFFSET -2.215000 -6.000000 0.000000
				CHANNELS 3 Zrotation Yrotation Xrotation
				JOINT RightFoot
				{
					OFFSET -2.500000 -6.900000 0.000000
					CHANNELS 3 Zrotation Yrotation Xrotation
					JOINT RightToeBase
					{
						OFFSET -0.200000 -0.500000 1.950000
						CHANNELS 3 Zrotation Yrotation Xrotation
						End Site
						{
							OFFSET 0.000000 0.000000 0.000000
						}
					}
				}
			}
		}
	}
	JOINT LowerBack
	{
		OFFSET 0.000000 0.000000 0.000000
		CHANNELS 3 Zrotation Yrotation Xrotation
		JOINT Spine
		{
			OFFSET -0.087000 1.940000 -0.288900
			CHANNELS 3 Zrotation Yrotation Xrotation
			JOINT Spine1
			{
				OFFSET 0.000000 1.950000 0.060000
				CHANNELS 3 Zrotation Yrotation Xrotation
				JOINT Neck
				{
					OFFSET 0.000000 0.000000 0.000000
					CHANNELS 3 Zrotation Yrotation Xrotation
					JOINT Neck1
					{
						OFFSET 0.000000 1.600000 0.340000
						CHANNELS 3 Zrotation Yrotation Xrotation
						JOINT Head
						{
							OFFSET 0.000000 1.667000 -0.240000
							CHANNELS 3 Zrotation Yrotation Xrotation
							End Site
							{
								OFFSET 0.000000 0.000000 0.000000
							}
						}
					}
				}
				JOINT LeftShoulder
				{
					OFFSET 0.000000 0.000000 0.000000
					CHANNELS 3 Zrotation Yrotation Xrotation
					JOINT LeftArm
					{
						OFFSET 2.700000 1.550000 -0.730000
						CHANNELS 3 Zrotation Yrotation Xrotation
						JOINT LeftForeArm
						{
							OFFSET 5.450000 0.000000 0.000000
							CHANNELS 3 Zrotation Yrotation Xrotation
							JOINT LeftHand
							{
								OFFSET 3.450000 0.000000 0.000000
								CHANNELS 3 Zrotation Yrotation Xrotation
								JOINT LeftHandIndex1
								{
									OFFSET 0.750000 0.000000 0.000000
									CHANNELS 3 Zrotation Yrotation Xrotation
									End Site
									{
										OFFSET 0.000000 0.000000 0.000000
									}
								}
							}
						}
					}
				}
				JOINT RightShoulder
				{
					OFFSET 0.000000 0.000000 0.000000
					CHANNELS 3 Zrotation Yrotation Xrotation
					JOINT RightArm
					{
						OFFSET -2.700000 1.550000 -0.730000
						CHANNELS 3 Zrotation Yrotation Xrotation
						JOINT RightForeArm
						{
							OFFSET -5.450000 0.000000 0.000000
							CHANNELS 3 Zrotation Yrotation Xrotation
							JOINT RightHand
							{
								OFFSET -3.450000 0.000000 0.000000
								CHANNELS 3 Zrotation Yrotation Xrotation
								JOINT RightHandIndex1
								{
									OFFSET -0.750000 0.000000 0.000000
									CHANNELS 3 Zrotation Yrotation Xrotation
									End Site
									{
										OFFSET 0.000000 0.000000 0.000000
									}
								}
							}
						}
					}
				}
			}
		}
	}
}
MOTION
Frames: 6
Frame Time: 0.016667
0.723990 17.612160 -3.843390 -2.911590 -12.372195 9.249262 -15.368075 12.628231 3.136834 2.180959 -3.313481 -18.949021 -11.492043 4.971667 6.528020 -0.511630 3.662231 3.482760 0.216120 -0.245610 0.303150 18.287567 -9.118540 4.279651 -7.962544 10.589311 -41.762957 3.998684 -9.668152 53.250537 -0.812243 -7.922984 1.752997 -0.074890 0.361490 0.200750 -3.226888 -2.918484 -8.276584 4.418340 -2.930117 13.972525 1.188247 -2.568644 2.383778 0.458555 -2.670715 -6.665969 -7.167059 6.876470 37.962400 -6.204040 7.813620 2.534370 -20.127412 -0.735399 1.929990 -44.731629 4.723980 -7.534744 -45.845578 -16.399416 2.437046 -3.909280 3.203280 0.367490 0.319870 -0.245950 0.138310 19.923690 2.734054 1.362888 56.670952 2.647810 -12.427371 23.295618 36.810455 3.548465 2.115637 -1.544412 -0.275380 0.097770 0.008640 -0.275940 
0.728500 17.620810 -3.871990 -3.068509 -12.411164 9.083665 -15.358277 12.634021 3.122913 2.363644 -3.327420 -19.351040 -11.300494 5.066715 7.174916 -0.519767 3.655526 3.481788 0.213100 -0.257160 0.313930 18.291542 -9.123097 4.317880 -7.827077 10.960088 -41.373744 3.895934 -10.107720 55.444858 -0.917238 -8.328968 1.642165 -0.086510 0.348450 0.191970 -3.242404 -2.908434 -8.330298 4.634585 -2.786876 14.578246 1.004624 -2.361491 2.452000 0.642587 -2.672950 -6.962345 -7.237122 6.768902 38.510685 -6.664640 7.900180 2.507240 -20.073245 -0.803128 2.075171 -44.239254 5.527898 -7.980876 -46.978494 -17.907420 3.075929 -3.887946 3.190754 0.387510 0.309780 -0.236890 0.135790 19.471307 2.865781 1.758803 56.628402 1.979099 -12.927170 26.888235 39.349843 4.940071 2.104520 -1.574380 -0.281850 0.103820 0.005120 -0.286450 
0.744480 17.634750 -3.914700 -3.464032 -12.386292 8.513950 -15.315515 12.676228 3.119359 2.808574 -3.239102 -19.574061 -11.076655 5.149715 7.762986 -0.523852 3.610893 3.475148 0.258150 -0.205810 0.371280 18.308453 -9.206030 4.304177 -7.442481 11.374574 -39.781317 3.659219 -10.781994 58.794479 -1.116412 -8.917582 1.462527 -0.072490 0.271910 0.165120 -3.319285 -2.857390 -8.402110 5.610063 -2.706107 16.018127 0.320684 -2.055178 2.565747 1.004460 -2.934142 -7.378117 -7.878352 6.758912 39.640379 -7.138710 7.796620 1.007020 -20.131758 -0.504844 2.136764 -43.808872 7.048840 -8.951349 -49.149823 -20.488571 4.241306 -3.795104 3.179008 0.440930 0.242070 -0.177840 0.132600 18.680659 2.846708 2.347367 56.283320 0.735488 -13.584684 34.494434 43.471663 8.149267 2.117469 -1.636774 -0.273130 0.112890 -0.033740 -0.302600 
0.763980 17.650000 -3.965390 -4.318807 -12.528197 8.232835 -15.224968 12.676377 3.093987 3.437242 -3.176968 -20.516597 -10.597320 5.347152 9.220522 -0.539867 3.598421 3.452961 0.281470 -0.178220 0.395460 18.371875 -9.370868 4.259458 -6.465507 11.777049 -37.587197 3.206590 -11.358226 61.996850 -1.295312 -9.500392 1.304871 -0.064270 0.235110 0.158020 -3.537886 -2.602901 -8.399102 7.737733 -2.553465 17.186180 -1.177440 -1.488767 2.912360 1.451662 -3.097931 -7.515137 -8.116547 6.536767 39.715303 -7.623830 7.482690 0.086460 -20.462547 0.171912 1.830395 -42.580853 8.233089 -9.542598 -52.457392 -23.265068 5.951227 -3.753396 3.200101 0.457020 0.218230 -0.154960 0.127880 17.828775 2.250956 2.901064 55.623619 -1.044389 -13.717719 46.906203 47.799894 13.899741 2.125114 -1.744972 -0.261160 0.113760 -0.045890 -0.311060 
0.763850 17.673490 -4.030340 -4.755963 -12.546834 7.685682 -15.170836 12.725098 3.137219 3.920545 -3.219981 -21.966585 -10.334095 5.693648 11.347038 -0.544023 3.651846 3.416430 0.334310 -0.116960 0.422210 18.383534 -9.597116 4.102058 -5.485957 11.651683 -34.259012 2.880478 -11.732728 63.926494 -1.446400 -9.854677 1.218025 -0.037780 0.209850 0.150770 -3.618274 -2.409838 -8.376342 8.636925 -1.997124 18.428540 -1.863513 -0.644291 3.443250 1.645478 -3.054407 -7.789407 -8.160346 6.171657 40.533499 -6.877790 6.441600 -1.073530 -20.799762 0.085123 1.741838 -41.411467 8.986186 -10.019689 -55.396737 -25.296856 7.358616 -3.687667 3.210845 0.492440 0.178860 -0.114580 0.154900 17.620273 2.479074 3.557383 53.980073 -2.688833 -13.559213 59.821040 50.650888 20.307750 2.150643 -1.827764 -0.250870 0.137810 -0.080540 -0.303040 
0.759070 17.695610 -4.102010 -4.867994 -12.033627 7.153246 -15.145810 12.764747 3.250367 4.080425 -3.411940 -23.883902 -10.251792 6.095122 13.703099 -0.545003 3.758953 3.336531 0.379000 -0.063220 0.435310 18.366509 -9.823707 3.886435 -4.732637 11.128513 -30.408539 3.094151 -12.244371 64.603113 -1.548462 -10.059230 1.163609 -0.015320 0.174720 0.164230 -3.618494 -2.262415 -8.355625 8.933345 -1.308201 19.576166 -2.030690 0.257586 4.014444 1.801715 -2.817774 -8.075858 -7.850260 5.604884 41.430764 -6.370560 5.456200 -2.162220 -21.185332 -0.365193 1.828387 -40.201138 9.793200 -10.460558 -58.360648 -27.037326 8.696236 -3.639861 3.249306 0.518700 0.148270 -0.077590 0.165900 17.614113 3.055581 4.097129 51.475478 -3.734268 -13.005681 72.298243 51.693078 26.591369 2.177330 -1.893465 -0.226130 0.131160 -0.095590 -0.299110 
